<svg width="35" height="35" viewBox="0 0 32 32" fill="none" xmlns="http://www.w3.org/2000/svg">
<path d="M9 3V8H8.5C7.678 8 7 8.678 7 9.5V10H2V11H7V14H2V15H7V18H2V19H7V22H2V23H7V23.5C7 24.322 7.678 25 8.5 25H9V30H10V25H13V30H14V25H17V30H18V25H21V30H22V25H22.5C23.322 25 24 24.322 24 23.5V23H29V22H24V19H29V18H24V15H29V14H24V11H29V10H24V9.5C24 8.678 23.322 8 22.5 8H22V3H21V8H18V3H17V8H14V3H13V8H10V3H9ZM8.5 9H22.5C22.786 9 23 9.214 23 9.5V23.5C23 23.786 22.786 24 22.5 24H8.5C8.43389 24.0016 8.36813 23.9898 8.30673 23.9653C8.24532 23.9407 8.18954 23.904 8.14278 23.8572C8.09602 23.8105 8.05925 23.7547 8.03471 23.6933C8.01016 23.6319 7.99835 23.5661 8 23.5V9.5C8 9.214 8.214 9 8.5 9ZM12.875 13C12.6437 13.0023 12.4225 13.0953 12.2589 13.2589C12.0953 13.4225 12.0023 13.6437 12 13.875V19.125C12 19.601 12.399 20 12.875 20H18.125C18.3563 19.9977 18.5775 19.9047 18.7411 19.7411C18.9047 19.5775 18.9977 19.3563 19 19.125V13.875C18.9977 13.6437 18.9047 13.4225 18.7411 13.2589C18.5775 13.0953 18.3563 13.0023 18.125 13H12.875ZM13 14H18V19H13V14Z" fill="white" stroke="white"/>
</svg>
