<svg width="25" height="25" viewBox="0 0 25 25" fill="none" xmlns="http://www.w3.org/2000/svg">
<circle cx="12.5" cy="12.5" r="12.5" fill="#FF3B30"/>
<path fill-rule="evenodd" clip-rule="evenodd" d="M17.6593 7.3574C17.1838 6.88087 16.4705 6.88087 15.995 7.3574L12.508 10.852L9.0209 7.3574C8.5454 6.88087 7.83214 6.88087 7.35663 7.3574C6.88112 7.83394 6.88112 8.54874 7.35663 9.02527L10.8437 12.5199L7.35663 16.0144C6.88112 16.491 6.88112 17.2058 7.35663 17.6823C7.59438 17.9206 7.91139 18 8.22839 18C8.5454 18 8.8624 17.9206 9.10016 17.6823L12.5872 14.1877L16.0743 17.6823C16.312 17.9206 16.629 18 16.946 18C17.263 18 17.58 17.9206 17.8178 17.6823C18.2933 17.2058 18.2933 16.491 17.8178 16.0144L14.3307 12.5199L17.8178 9.02527C18.1348 8.54874 18.1348 7.83394 17.6593 7.3574Z" fill="white"/>
</svg>
