<svg width="20" height="20" viewBox="0 0 20 20" fill="none" xmlns="http://www.w3.org/2000/svg">
<path fill-rule="evenodd" clip-rule="evenodd" d="M1.7 9.85C1.7 7.84114 1.70026 6.30417 1.76138 5.11228C1.82331 3.90473 1.94506 3.15104 2.1392 2.66568C2.30862 2.24215 2.51918 2.05038 2.84558 1.92345C3.24629 1.76762 3.85385 1.7 4.85 1.7C5.8238 1.7 6.50324 1.76173 6.97811 1.86726C7.45147 1.97245 7.65449 2.10657 7.74896 2.20104C7.8332 2.28528 7.9046 2.41045 7.94907 2.67724C7.99759 2.96838 8 3.32844 8 3.85C8 4.31944 8.38056 4.7 8.85 4.7C9.31944 4.7 9.7 4.31944 9.7 3.85L9.7 3.80743V3.80741C9.70007 3.34112 9.70015 2.84303 9.62593 2.39776C9.5454 1.91455 9.3668 1.41472 8.95104 0.998959C8.54551 0.59343 7.99853 0.352551 7.34689 0.207741C6.69676 0.0632678 5.87619 0 4.85 0C3.84615 0 2.9537 0.0573798 2.22942 0.339046C1.43082 0.649615 0.891381 1.20785 0.560795 2.03432C0.254939 2.79896 0.12669 3.79527 0.0636154 5.02522C0 6.26572 0 7.84584 0 9.82552V9.82571V9.85V9.87429V9.87448C0 11.8542 0 13.4343 0.0636154 14.6748C0.12669 15.9047 0.254939 16.901 0.560795 17.6657C0.891381 18.4921 1.43082 19.0504 2.22942 19.361C2.9537 19.6426 3.84615 19.7 4.85 19.7C5.87619 19.7 6.69676 19.6367 7.34689 19.4923C7.99853 19.3475 8.54551 19.1066 8.95104 18.701C9.3668 18.2853 9.5454 17.7854 9.62593 17.3022C9.70015 16.857 9.70007 16.3589 9.7 15.8926V15.8926L9.7 15.85C9.7 15.3806 9.31944 15 8.85 15C8.38056 15 8 15.3806 8 15.85C8 16.3716 7.99759 16.7316 7.94907 17.0228C7.9046 17.2896 7.8332 17.4147 7.74896 17.499C7.65449 17.5934 7.45147 17.7276 6.97811 17.8327C6.50324 17.9383 5.8238 18 4.85 18C3.85385 18 3.24629 17.9324 2.84558 17.7765C2.51918 17.6496 2.30862 17.4579 2.1392 17.0343C1.94506 16.549 1.82331 15.7953 1.76138 14.5877C1.70026 13.3958 1.7 11.8589 1.7 9.85ZM15.451 5.24896C15.1191 4.91701 14.5809 4.91701 14.249 5.24896C13.917 5.5809 13.917 6.11909 14.249 6.45104L16.7979 9H8.85C8.38056 9 8 9.38056 8 9.85C8 10.3194 8.38056 10.7 8.85 10.7H16.7979L14.249 13.249C13.917 13.5809 13.917 14.1191 14.249 14.451C14.5809 14.783 15.1191 14.783 15.451 14.451L19.451 10.451C19.783 10.1191 19.783 9.5809 19.451 9.24896L15.451 5.24896Z" fill="#FF3B30"/>
</svg>
