<svg width="146" height="146" viewBox="0 0 146 146" fill="none" xmlns="http://www.w3.org/2000/svg">
<path d="M129.331 105.977H16.6694V40.4637C16.6694 38.915 17.9246 37.6597 19.4733 37.6597H126.526C128.075 37.6597 129.331 38.9153 129.331 40.4637V105.977Z" fill="#3F5EAB"/>
<path d="M61.5923 119.486H82.4777V133.188H61.5923V119.486Z" fill="url(#paint0_linear_1_25)"/>
<path d="M41.8647 133.188H102.205V136.04H41.8647V133.188Z" fill="#CCCCCC"/>
<path d="M22.0072 42.2915H123.993V101.345H22.0072V42.2915Z" fill="url(#paint1_linear_1_25)"/>
<path d="M122.249 119.486H23.7507C19.8397 119.486 16.6694 116.316 16.6694 112.405V105.977H129.331V112.405C129.331 116.316 126.16 119.486 122.249 119.486Z" fill="#E6E6E6"/>
<path d="M34.7477 82.5716H46.0801V97.9498H34.7477V82.5716Z" fill="url(#paint2_linear_1_25)"/>
<path d="M56.2659 58.7533H67.5983V97.9497H56.2659V58.7533Z" fill="url(#paint3_linear_1_25)"/>
<path d="M77.7841 39.5597H89.1165V97.9497H77.7841V39.5597Z" fill="url(#paint4_linear_1_25)"/>
<path d="M99.6866 9.95993H111.019V97.9497H99.6866V9.95993Z" fill="url(#paint5_linear_1_25)"/>
<defs>
<linearGradient id="paint0_linear_1_25" x1="72.0353" y1="133.188" x2="72.0353" y2="119.486" gradientUnits="userSpaceOnUse">
<stop stop-color="white"/>
<stop offset="1" stop-color="#B3B3B3"/>
</linearGradient>
<linearGradient id="paint1_linear_1_25" x1="32.7402" y1="112.078" x2="113.26" y2="31.5588" gradientUnits="userSpaceOnUse">
<stop stop-color="#B3B3B3"/>
<stop offset="0.016" stop-color="#B7B7B7"/>
<stop offset="0.152" stop-color="#D1D1D1"/>
<stop offset="0.302" stop-color="#E5E5E5"/>
<stop offset="0.47" stop-color="#F4F4F4"/>
<stop offset="0.672" stop-color="#FCFCFC"/>
<stop offset="1" stop-color="white"/>
</linearGradient>
<linearGradient id="paint2_linear_1_25" x1="33.7365" y1="96.9383" x2="47.0918" y2="83.583" gradientUnits="userSpaceOnUse">
<stop stop-color="#FF7BAC"/>
<stop offset="1" stop-color="#00FFFF"/>
</linearGradient>
<linearGradient id="paint3_linear_1_25" x1="49.3001" y1="90.9837" x2="74.5644" y2="65.7194" gradientUnits="userSpaceOnUse">
<stop stop-color="#FF7BAC"/>
<stop offset="1" stop-color="#00FFFF"/>
</linearGradient>
<linearGradient id="paint4_linear_1_25" x1="66.0199" y1="86.1853" x2="100.881" y2="51.3241" gradientUnits="userSpaceOnUse">
<stop stop-color="#FF7BAC"/>
<stop offset="1" stop-color="#00FFFF"/>
</linearGradient>
<linearGradient id="paint5_linear_1_25" x1="80.5227" y1="78.7855" x2="130.184" y2="29.1241" gradientUnits="userSpaceOnUse">
<stop stop-color="#FF7BAC"/>
<stop offset="1" stop-color="#00FFFF"/>
</linearGradient>
</defs>
</svg>
