<svg width="25" height="25" viewBox="0 0 25 25" fill="none" xmlns="http://www.w3.org/2000/svg">
<path d="M19.7011 12.6359C19.7011 13.3152 19.1576 13.8587 18.4783 13.8587H13.587V18.4783C13.587 19.1576 13.0435 19.7011 12.3642 19.7011C11.6848 19.7011 11.1413 19.1576 11.1413 18.4783V13.8587H6.52178C5.84243 13.8587 5.29895 13.3152 5.29895 12.6359C5.29895 11.9565 5.84243 11.4131 6.52178 11.4131H11.1413V6.52175C11.1413 5.8424 11.6848 5.29892 12.3642 5.29892C13.0435 5.29892 13.587 5.8424 13.587 6.52175V11.4131H18.4783C19.1576 11.4131 19.7011 11.9565 19.7011 12.6359Z" fill="white"/>
</svg>
