<svg width="176" height="176" viewBox="0 0 176 176" fill="none" xmlns="http://www.w3.org/2000/svg">
<circle cx="88" cy="88" r="88" fill="#192C8C"/>
<g clip-path="url(#clip0_11_72)">
<path d="M125.67 103.941L109.204 99.8327C109.143 99.74 109.075 99.6507 108.995 99.5701L104.09 94.6634V89.9664C104.498 89.5515 104.898 89.1208 105.287 88.6718C109.863 83.3868 112.615 76.2669 113.035 68.6235C113.052 68.3168 113.067 68.0107 113.083 67.7049C113.134 66.6936 113.182 65.7385 113.278 64.7747L114.902 48.5345C115.404 43.5146 113.751 38.4906 110.366 34.7501C106.981 31.0093 102.146 28.864 97.1006 28.864H78.8992C73.8543 28.864 69.0194 31.0093 65.6342 34.7498C62.249 38.4904 60.5956 43.5148 61.0975 48.5345L62.7202 64.7637C62.817 65.7311 62.8658 66.6943 62.9173 67.7141C62.9326 68.0173 62.9479 68.3204 62.9646 68.6235C63.3847 76.2669 66.1363 83.3868 70.7126 88.6718C71.1012 89.1208 71.5011 89.5512 71.9094 89.9664V94.6634L67.0045 99.5699C66.9259 99.6484 66.8598 99.7351 66.7994 99.8251L50.3286 103.941C43.3486 105.686 39.5045 109.97 39.5045 116.004V127.768C39.5045 130.684 41.8769 133.056 44.7929 133.056H131.207C134.123 133.056 136.495 130.684 136.495 127.768V116.003C136.495 109.97 132.651 105.686 125.67 103.941ZM86.1996 122.254H89.8002C89.9258 122.254 90.0498 122.248 90.1733 122.24L91.4398 129.68H84.56L85.8265 122.24C85.9501 122.248 86.0741 122.254 86.1996 122.254ZM91.713 116.966C91.713 118.021 90.855 118.879 89.8002 118.879H86.1996C85.1449 118.879 84.2868 118.021 84.2868 116.966V114.269L87.9999 111.793L91.713 114.269V116.966ZM75.2854 92.8604C79.1033 95.5897 83.4704 97.0501 87.9999 97.0501C92.5295 97.0501 96.8965 95.5897 100.715 92.8604V94.6634L87.9999 107.378L75.2854 94.6634V92.8604ZM94.3466 111.967C94.3448 111.966 94.343 111.965 94.3412 111.964L90.6491 109.502L102.402 97.7493L105.711 101.059C104.594 103.073 101.972 107.792 98.2704 114.449C98.2634 114.461 98.2488 114.487 98.2074 114.497C98.1597 114.509 98.1255 114.486 98.1142 114.479L94.3466 111.967ZM68.1371 37.0148C70.8834 33.98 74.8063 32.2396 78.8992 32.2396H97.1006C101.194 32.2396 105.116 33.98 107.863 37.0148C110.609 40.0495 111.951 44.1258 111.543 48.1983L110.516 58.4752C108.235 53.0406 105.712 49.5595 105.564 49.3568C105.026 48.6229 104.002 48.4478 103.251 48.9609C98.8156 51.989 79.0612 52.3745 71.8223 52.2678C71.3339 52.2586 70.8661 52.4652 70.5402 52.8293C68.4719 55.138 66.8447 57.7338 65.6376 60.01L64.4566 48.1985C64.049 44.126 65.3907 40.0497 68.1371 37.0148ZM66.3354 68.4383C66.319 68.1399 66.3039 67.8417 66.2888 67.5433C66.2785 67.337 66.2677 67.1281 66.2567 66.9191C66.6203 65.8866 68.73 60.1961 72.5588 55.6522C77.229 55.6931 96.3038 55.6625 103.64 52.5512C105.087 54.833 108.136 60.1747 109.745 66.8804C109.733 67.0996 109.722 67.3183 109.711 67.5345C109.696 67.8354 109.681 68.1365 109.664 68.4383C108.886 82.5895 99.3704 93.6746 87.9999 93.6746C76.6295 93.6746 67.1134 82.5895 66.3354 68.4383ZM73.5978 97.7493L85.3508 109.502L81.6579 111.964C81.6566 111.965 81.655 111.966 81.6537 111.967L77.8857 114.479C77.8746 114.487 77.8404 114.509 77.7925 114.498C77.7511 114.488 77.7365 114.461 77.7297 114.449C74.0278 107.792 71.4059 103.073 70.2895 101.059L73.5978 97.7493ZM42.8801 127.768V116.004C42.8801 111.544 45.6615 108.587 51.147 107.215L67.5686 103.113C68.5417 104.87 70.5594 108.5 74.7797 116.09C75.25 116.935 76.0588 117.551 76.9981 117.778C77.2673 117.844 77.5411 117.875 77.8143 117.875C78.4993 117.875 79.1787 117.674 79.7582 117.288L80.9115 116.519V116.966C80.9115 118.51 81.5769 119.901 82.636 120.869L81.1361 129.68H59.0827V120.566C59.0827 119.634 58.327 118.879 57.3949 118.879C56.4628 118.879 55.7072 119.634 55.7072 120.566V129.68H44.7929C43.7381 129.68 42.8801 128.822 42.8801 127.768ZM133.12 127.768C133.12 128.822 132.262 129.68 131.207 129.68H120.293V120.566C120.293 119.634 119.537 118.879 118.605 118.879C117.673 118.879 116.917 119.634 116.917 120.566V129.68H94.8638L93.3639 120.869C94.4229 119.902 95.0884 118.51 95.0884 116.966V116.519L96.2417 117.288C96.8211 117.674 97.5005 117.876 98.1855 117.876C98.4587 117.876 98.7328 117.844 99.0018 117.778C99.9411 117.551 100.75 116.936 101.22 116.09C105.436 108.508 107.454 104.877 108.428 103.118L124.852 107.215C130.338 108.587 133.12 111.544 133.12 116.003V127.768Z" fill="white"/>
</g>
<defs>
<clipPath id="clip0_11_72">
<rect width="104.192" height="104.192" fill="white" transform="translate(35.9039 28.864)"/>
</clipPath>
</defs>
</svg>
