<svg width="24" height="25" viewBox="0 0 24 25" fill="none" xmlns="http://www.w3.org/2000/svg">
<path fill-rule="evenodd" clip-rule="evenodd" d="M3.41905 2.26667C3.15084 2.26667 2.86854 2.38308 2.64204 2.63265C2.41223 2.88587 2.26667 3.25091 2.26667 3.65185V21.2815C2.26667 21.6824 2.41223 22.0475 2.64204 22.3007C2.86854 22.5503 3.15085 22.6667 3.41905 22.6667H16V11.8V3.65185C16 3.25091 15.8544 2.88587 15.6246 2.63265C15.3981 2.38308 15.1158 2.26667 14.8476 2.26667H3.41905ZM3.41905 24.9333H17.1333H19.8C20.8078 24.9333 21.7744 24.533 22.487 23.8203C23.1996 23.1077 23.6 22.1412 23.6 21.1333V11.8C23.6 11.1741 23.0926 10.6667 22.4667 10.6667H18.2667V3.65185C18.2667 2.71689 17.9306 1.80074 17.3031 1.10933C16.6723 0.41427 15.7918 0 14.8476 0H3.41905C2.47483 0 1.59438 0.41427 0.963567 1.10933C0.336072 1.80074 0 2.71689 0 3.65185V21.2815C0 22.2164 0.336072 23.1326 0.963567 23.824C1.59438 24.5191 2.47483 24.9333 3.41905 24.9333ZM18.2667 22.6667V12.9333H21.3333V21.1333C21.3333 21.54 21.1718 21.93 20.8842 22.2176C20.5967 22.5051 20.2067 22.6667 19.8 22.6667H18.2667ZM6.46667 6.66667C5.84074 6.66667 5.33333 7.17408 5.33333 7.8C5.33333 8.42592 5.84074 8.93333 6.46667 8.93333H11.8C12.4259 8.93333 12.9333 8.42592 12.9333 7.8C12.9333 7.17408 12.4259 6.66667 11.8 6.66667H6.46667ZM5.33333 11.8C5.33333 11.1741 5.84074 10.6667 6.46667 10.6667H11.8C12.4259 10.6667 12.9333 11.1741 12.9333 11.8C12.9333 12.4259 12.4259 12.9333 11.8 12.9333H6.46667C5.84074 12.9333 5.33333 12.4259 5.33333 11.8ZM6.46667 16C5.84074 16 5.33333 16.5074 5.33333 17.1333C5.33333 17.7593 5.84074 18.2667 6.46667 18.2667H10.4667C11.0926 18.2667 11.6 17.7593 11.6 17.1333C11.6 16.5074 11.0926 16 10.4667 16H6.46667Z" fill="#FCFDF9"/>
</svg>
