<svg xmlns="http://www.w3.org/2000/svg" fill-rule="evenodd" stroke-linejoin="round" stroke-miterlimit="2" clip-rule="evenodd" viewBox="0 0 24 24" id="trash"><path fill="#fff" d="M19.498,5.539c0.011,-0.139 -0.036,-0.276 -0.131,-0.379c-0.095,-0.102 -0.228,-0.16 -0.367,-0.16l-14,-0c-0.139,-0 -0.272,0.058 -0.367,0.16c-0.095,0.103 -0.142,0.24 -0.131,0.379c-0,-0 0.777,9.948 1.105,14.156c0.102,1.301 1.188,2.305 2.493,2.305c2.144,-0 5.656,-0 7.8,-0c1.305,0 2.391,-1.004 2.493,-2.305c0.328,-4.208 1.105,-14.156 1.105,-14.156Zm-1.039,0.461l-1.063,13.617c-0.061,0.781 -0.713,1.383 -1.496,1.383c-2.144,-0 -5.656,-0 -7.8,-0c-0.783,0 -1.435,-0.602 -1.496,-1.383c0,-0 -1.063,-13.617 -1.063,-13.617l12.918,0Z"></path><path fill="#fff" d="M4 6l16 0c.276 0 .5-.224.5-.5 0-.276-.224-.5-.5-.5l-16 0c-.276 0-.5.224-.5.5 0 .276.224.5.5.5zM10.5 16.5l0-6c0-.276-.224-.5-.5-.5-.276 0-.5.224-.5.5l0 6c0 .276.224.5.5.5.276 0 .5-.224.5-.5zM14.5 16.5l0-6c0-.276-.224-.5-.5-.5-.276 0-.5.224-.5.5l0 6c0 .276.224.5.5.5.276 0 .5-.224.5-.5zM8 3l8 0c.276 0 .5-.224.5-.5 0-.276-.224-.5-.5-.5l-8 0c-.276 0-.5.224-.5.5 0 .276.224.5.5.5z"></path></svg>