<svg width="24" height="26" viewBox="0 0 24 26" fill="none" xmlns="http://www.w3.org/2000/svg">
<path fill-rule="evenodd" clip-rule="evenodd" d="M7.13337 6.99999C7.13337 4.8022 9.18307 2.79999 12 2.79999C14.817 2.79999 16.8667 4.8022 16.8667 6.99999C16.8667 9.19779 14.817 11.2 12 11.2C9.18307 11.2 7.13337 9.19778 7.13337 6.99999ZM12 0.533325C8.18958 0.533325 4.8667 3.30675 4.8667 6.99999C4.8667 10.6932 8.18958 13.4667 12 13.4667C15.8105 13.4667 19.1334 10.6932 19.1334 6.99999C19.1334 3.30675 15.8105 0.533325 12 0.533325ZM3.13337 21C3.13337 20.2399 3.78486 19.3504 5.56738 18.5947C7.26643 17.8744 9.60728 17.4667 12 17.4667C14.3671 17.4667 16.7064 17.943 18.4147 18.7023C19.2702 19.0825 19.9141 19.51 20.3281 19.9358C20.7372 20.3566 20.8667 20.7132 20.8667 21C20.8667 21.0659 20.8441 21.2374 20.5168 21.5095C20.1794 21.7898 19.6151 22.0871 18.7936 22.3532C17.1605 22.8822 14.7892 23.2 12 23.2C9.21083 23.2 6.83956 22.8822 5.20642 22.3532C4.38501 22.0871 3.8207 21.7898 3.48331 21.5095C3.15592 21.2374 3.13337 21.0659 3.13337 21ZM12 15.2C9.39278 15.2 6.73363 15.6384 4.68268 16.5078C2.7152 17.3419 0.866699 18.7857 0.866699 21C0.866699 21.9537 1.37986 22.7086 2.03461 23.2528C2.67937 23.7886 3.54363 24.1972 4.50793 24.5095C6.44622 25.1374 9.07495 25.4667 12 25.4667C14.9251 25.4667 17.5538 25.1374 19.4921 24.5095C20.4564 24.1972 21.3207 23.7886 21.9655 23.2528C22.6202 22.7086 23.1334 21.9537 23.1334 21C23.1334 19.9534 22.6379 19.06 21.9533 18.3558C21.2735 17.6566 20.3548 17.0841 19.3353 16.631C17.2937 15.7236 14.633 15.2 12 15.2Z" fill="#FCFDF9"/>
</svg>
